<?xml version="1.0" encoding="utf-8"?>
<!-- Svg Vector Icons : http://www.onlinewebfonts.com/icon -->
<!DOCTYPE svg PUBLIC "-//W3C//DTD SVG 1.1//EN" "http://www.w3.org/Graphics/SVG/1.1/DTD/svg11.dtd">
<svg version="1.1" xmlns="http://www.w3.org/2000/svg" xmlns:xlink="http://www.w3.org/1999/xlink" x="0px" y="0px" viewBox="0 0 1000 1000" enable-background="new 0 0 1000 1000" xml:space="preserve">
<metadata> Svg Vector Icons : http://www.onlinewebfonts.com/icon </metadata>
<g><g transform="translate(0.000000,511.000000) scale(0.100000,-0.100000)"><path style="fill:#777" d="M161.8,3646.9l-61.8-61.8V108.3v-3474.7l51.1-51.2c27.7-27.7,83.1-55.4,121.4-63.9c40.5-6.4,2198.6-8.5,4797.7-6.4l4727.5,6.4l51.1,59.6l51.1,59.6V110.4v3474.7l-61.8,61.8l-61.8,61.8H5000H223.6L161.8,3646.9z M1060.8,3086.6c219.4-123.6,213-447.4-8.5-564.6c-159.8-83.1-353.7-19.2-436.7,142.7C468.6,2950.3,779.6,3244.3,1060.8,3086.6z M2123.9,3086.6c112.9-78.8,157.7-153.4,157.7-266.3c-2.1-130-51.1-223.7-149.1-285.5c-206.6-127.8-470.8,6.4-492.1,251.4C1619,3046.1,1913,3229.4,2123.9,3086.6z M3167.8,3086.6c161.9-110.8,206.7-262,123.6-421.8c-193.9-375-758.4-98-573.1,281.2C2801.4,3120.7,3018.7,3186.7,3167.8,3086.6z M9410-552.2v-2450H5000H590v2450v2450h4410h4410V-552.2z"/><path style="fill:#777" d="M4627.2,1288.5c-967.2-142.7-1866.3-683.9-2548-1538.2c-142.7-179-181.1-283.3-147-409.1c40.5-151.3,385.6-549.6,739.3-854.3c515.6-445.3,1050.3-724.3,1657.5-867.1c213-51.1,274.8-55.4,671.1-55.4c396.3,0,458,4.3,671.1,55.4c850,200.2,1634,715.8,2237,1465.7c144.9,181.1,164,221.6,164,340.9c0,121.4-17,159.8-170.4,351.5C7433,368.2,6727.8,881.6,6065.2,1120.2c-340.9,121.4-577.3,161.9-990.6,170.4C4863.7,1294.9,4663.4,1292.8,4627.2,1288.5z M5468.7,939.1c477.2-134.2,865-447.4,1065.2-862.8C6642.6-145.3,6683-322.1,6683-575.6c0-707.3-481.5-1303.8-1225-1514.7c-245-68.2-671.1-68.2-916.1,0C3798.4-1879.4,3317-1285,3317-573.5c0,767,573.1,1408.2,1389,1553.1C4885,1013.7,5285.5,990.3,5468.7,939.1z"/><path style="fill:#777" d="M4816.8,555.7c-117.2-17-392-102.3-392-121.4c0-6.4,23.4-38.3,53.3-72.4c142.7-172.6,93.7-411.2-104.4-509.2c-147-70.3-306.8-51.1-413.3,49c-59.7,55.4-70.3,44.8-134.2-155.5c-161.9-513.4,102.3-1090.8,609.3-1331.5c198.1-93.7,345.1-125.7,564.6-125.7c219.4,0,366.4,32,568.8,127.8c718,340.9,873.5,1269.8,302.5,1813C5607.2,479,5176.8,613.2,4816.8,555.7z"/></g></g>
</svg>