<?xml version="1.0" encoding="utf-8"?>
<!-- Svg Vector Icons : http://www.onlinewebfonts.com/icon -->
<!DOCTYPE svg PUBLIC "-//W3C//DTD SVG 1.1//EN" "http://www.w3.org/Graphics/SVG/1.1/DTD/svg11.dtd">
<svg version="1.1" xmlns="http://www.w3.org/2000/svg" xmlns:xlink="http://www.w3.org/1999/xlink" x="0px" y="0px" viewBox="0 0 1000 1000" enable-background="new 0 0 1000 1000" xml:space="preserve">
<metadata> Svg Vector Icons : http://www.onlinewebfonts.com/icon </metadata>
<g><g transform="translate(0.000000,511.000000) scale(0.100000,-0.100000)"><path style="fill:#777" d="M4736.6,4045.7c-439.3-121.6-735.8-571.6-663.3-1006.7c12.8-74.6,46.9-189.8,76.8-255.9c57.6-123.7,249.5-330.6,369-398.8c68.2-38.4,68.2-38.4,78.9,10.7c4.3,27.7,36.3,179.2,70.4,337c38.4,183.4,57.6,332.7,53.3,407.4c-8.5,128,29.9,238.9,91.7,262.3c100.2,38.4,181.3-14.9,181.3-119.4c0-34.1-21.3-130.1-44.8-213.3c-44.8-149.3-44.8-149.3-4.3-204.7c96-130.1,287.9-44.8,356.2,160c51.2,149.3,44.8,347.6-12.8,432.9c-153.6,221.8-533.2,196.2-684.6-46.9c-74.6-119.4-85.3-275.1-25.6-375.4c34.1-55.5,36.3-74.6,14.9-123.7c-25.6-51.2-29.9-53.3-74.6-25.6c-134.4,89.6-185.6,275.1-130.1,464.9c42.7,149.3,206.9,317.8,360.4,369c213.3,72.5,479.9,34.1,633.4-91.7c277.3-228.2,204.7-793.4-119.4-940.5c-115.2-51.2-241-51.2-328.4,2.1c-38.4,23.5-72.5,42.7-76.8,42.7c-2.1,0-19.2-55.5-34.1-121.6c-14.9-68.2-44.8-160-68.3-206.9c-49-98.1-40.5-108.8,121.6-130.1c142.9-17.1,390.3,34.1,518.3,108.8c249.5,147.2,409.5,377.5,456.4,656.9C5954.4,3657.6,5340.2,4212.1,4736.6,4045.7z"/><path style="fill:#777" d="M6636.9,3393.1c-40.5-40.5-42.7-70.4-42.7-827.5c0-673.9,4.3-791.3,34.1-831.8l32-46.9h808.3H8277l32,46.9c29.8,40.5,34.1,157.8,34.1,831.8c0,757.1-2.1,787-42.6,827.5c-40.5,40.5-70.4,42.6-831.8,42.6S6677.4,3433.6,6636.9,3393.1z M7882.4,3071.1c55.4-42.7,61.8-44.8,142.9-12.8c93.8,36.3,102.4,23.5,38.4-57.6c-49.1-61.8-46.9-64,38.4-32l59.7,21.3l-66.1-70.4c-53.3-57.6-70.4-100.2-91.7-226.1c-44.8-283.7-196.2-494.8-445.7-616.4c-108.8-53.3-142.9-59.7-345.5-59.7c-198.3,0-234.6,6.4-319.9,53.3l-96,51.2l117.3,14.9c64,6.4,151.4,29.9,189.8,51.2l74.6,38.4l-76.8,38.4c-42.7,21.3-98.1,66.1-123.7,98.1l-46.9,59.7l57.6,6.4l59.7,8.5l-66.1,38.4c-70.4,42.7-117.3,106.6-142.9,189.8c-14.9,46.9-10.7,49.1,40.5,36.3c61.8-14.9,72.5,10.7,23.4,51.2c-53.3,42.7-81,172.8-55.4,243.1l23.4,59.7l98.1-89.6c110.9-102.4,241-164.2,379.6-183.4l98.1-14.9v68.2C7447.3,3054,7718.2,3199,7882.4,3071.1z"/><path style="fill:#777" d="M1616.4,3367.5c-51.2-72.5-51.2-1561.2,0-1633.7c32-44.8,44.8-46.9,405.2-46.9h371.1v405.2v405.2h-106.6h-106.6v128v128h104.5h104.5l8.5,128c10.7,136.5,49.1,209,151.4,285.8c44.8,32,100.2,44.8,249.5,51.2l191.9,8.5V3086v-140.8h-91.7c-108.8,0-164.2-46.9-164.2-134.4c0-55.5,4.3-57.6,128-57.6h128v-128v-125.8l-121.6-6.4l-123.7-6.4l-6.4-398.8l-4.3-400.9h264.5c213.3,0,273,6.4,298.6,34.1c29.9,27.7,34.1,134.4,34.1,827.5c0,744.3-2.1,797.7-38.4,829.6c-36.3,32-125.8,36.3-842.4,36.3h-801.9L1616.4,3367.5z"/><path style="fill:#777" d="M2537.7,1260.4c-119.4-36.3-206.9-108.8-260.2-217.5l-55.5-110.9V-661.3v-1591l-479.9-584.4l-482-584.4l8.5-119.4c8.5-138.6,64-232.5,172.8-283.7c66.1-32,373.2-34.1,3580.9-29.8c3506.3,6.4,3510.5,6.4,3568.1,51.2c96,70.4,142.9,149.3,153.6,260.2l8.5,104.5l-482,588.6l-482,588.6v1574c0,1087.7-8.5,1599.6-23.4,1659.3c-32,110.9-174.9,253.8-285.8,285.8C7377,1286,2629.4,1288.1,2537.7,1260.4z M7426,919.1c42.7-42.7,42.7-70.4,42.7-1407.6c0-1337.2,0-1365-42.7-1407.6s-70.4-42.7-2416.4-42.7c-2113.6,0-2378,4.3-2420.7,34.1l-46.9,32v1384.2V895.7l46.9,32c42.7,29.9,307.1,34.1,2420.7,34.1C7355.6,961.8,7383.3,961.8,7426,919.1z M5643-3047.8c53.3-81,98.1-153.5,98.1-160c0-6.4-330.6-10.7-735.8-10.7s-735.8,4.3-735.8,10.7c0,6.4,44.8,78.9,98.1,160l100.2,149.3h537.5h537.5L5643-3047.8z"/><path style="fill:#777" d="M4619.3,654.7c-407.4-93.8-752.9-435.1-842.4-831.8c-23.5-113-27.7-115.2-155.7-174.9C3184-558.9,2981.4-1111.3,3184-1544.2l44.8-96H3378h149.3l-34.1,49.1c-121.6,162.1-172.8,432.9-119.4,605.7c64,202.6,241,379.6,447.9,445.7c64,19.2,128,44.8,140.8,55.5c14.9,10.7,32,81,40.5,157.8c19.2,181.3,128,401,258.1,520.4c53.3,49,160,119.4,238.9,155.7c134.4,64,157.8,68.3,377.5,68.3c209,0,247.4-6.4,351.9-55.4c64-32,157.8-87.5,209-123.7c85.3-64,104.5-68.3,287.9-72.5c179.2-4.3,209-10.7,330.6-76.8c140.8-76.8,258.1-192,324.2-322.1c49-96,91.7-307.1,74.6-364.7c-10.7-32,4.3-61.9,61.9-117.3c81-78.9,140.8-236.7,140.8-371.1c0-185.5-104.5-390.3-253.8-501.2l-74.6-53.3h191.9h189.8l46.9,70.4c170.6,251.7,189.8,588.6,49.1,868c-34.1,66.1-68.3,174.9-76.8,236.7c-66.1,516.1-520.4,912.8-1047.2,915c-85.3,0-134.4,14.9-213.3,64C5235.7,658.9,4890.2,716.5,4619.3,654.7z"/><path style="fill:#777" d="M4440.2-693.2v-567.3l-115.2,96l-113,98.1l-44.8-46.9l-46.9-49.1l177-174.9c96-96,191.9-174.9,209-174.9c19.2,0,117.3,78.9,219.7,174.9l185.6,172.8l-53.3,55.4l-55.5,53.3l-106.6-104.5l-106.6-104.5v569.4v569.4h-74.6h-74.6V-693.2z"/><path style="fill:#777" d="M5348.7-294.4L5176-465l53.3-55.5l51.2-53.3l102.4,100.3l102.4,100.2v-569.4v-569.5h74.6h74.6v565.2c0,311.4,6.4,565.2,14.9,565.2c8.5,0,59.7-42.6,113-96l98.1-96l53.3,55.5l51.2,55.5l-181.3,168.5c-100.2,91.7-198.3,168.5-221.8,168.5C5540.6-125.9,5444.7-202.7,5348.7-294.4z"/><path style="fill:#777" d="M724.9,963.9c-264.5-87.4-441.5-241-556.6-488.4C104.3,341.1,100,317.7,100,98c0-223.9,4.3-243.1,70.4-379.6c221.8-450,740.1-637.7,1194.3-430.8c130.1,59.7,322.1,234.6,396.7,360.4c275.1,469.2,51.2,1100.5-456.4,1294.6C1136.5,1006.6,880.6,1017.2,724.9,963.9z M912.6,516c117.3-53.3,123.7-70.4,53.3-138.6c-57.6-55.5-61.8-55.5-136.5-23.5c-100.2,42.7-132.2,40.5-238.9-10.7c-106.6-51.2-160-138.6-160-262.3c0-162.1,123.7-270.9,309.2-270.9c81,0,110.9,10.7,162.1,61.9c34.1,34.1,61.8,72.5,61.8,85.3c0,10.7-55.5,23.4-121.6,27.7L718.5-8.6v85.3V162h223.9h223.9l-4.3-110.9c-12.8-319.9-300.7-507.6-605.7-401c-258.1,91.7-386,383.9-273,629.2c57.6,128,96,168.5,221.8,226.1C635.3,567.2,791,571.5,912.6,516z M1578,253.7c6.4-76.8,10.7-81,81-81c66.1,0,72.5-4.3,72.5-64c0-59.7-6.4-64-74.6-64c-70.4,0-74.6-4.2-74.6-74.6c0-68.2-4.3-74.6-64-74.6s-64,6.4-64,74.6c0,72.5-2.1,74.6-85.3,74.6c-81,0-85.3,4.3-85.3,64c0,59.7,4.3,64,85.3,64h85.3v87.4c0,81,2.1,85.3,59.7,78.9C1563.1,332.6,1571.6,321.9,1578,253.7z"/><path style="fill:#777" d="M8206.6,927.6c-29.8-27.7-34.1-134.4-34.1-840.3V-721l46.9-32c40.5-29.8,155.7-34.1,816.8-34.1c661.2,0,776.3,4.3,816.8,34.1l46.9,32V87.3c0,706-4.3,812.6-34.1,840.3c-27.7,29.9-134.4,34.1-829.6,34.1C8341,961.8,8234.3,957.5,8206.6,927.6z M8680.1,629.1c96-66.1,29.9-243.1-91.7-243.1s-187.7,177-91.7,243.1c25.6,19.2,68.3,34.1,91.7,34.1C8611.8,663.2,8654.5,648.3,8680.1,629.1z M9494.8,268.6c108.8-55.5,128-123.7,128-458.6v-298.6h-115.2h-115.2l-8.5,258.1c-6.4,241-10.7,260.2-57.6,298.6c-59.7,49-106.6,51.2-164.2,10.7c-34.1-25.6-42.6-66.1-51.2-294.3l-10.7-262.3l-121.6-6.4l-123.7-6.4v386v383.9h128c98.1,0,128-6.4,128-32s12.8-23.5,70.4,10.7C9264.4,309.2,9407.3,313.4,9494.8,268.6z M8705.7-104.6v-383.9h-115.2h-115.2l-10.7,123.7c-6.4,66.1-12.8,238.9-10.7,383.9v260.2h125.8h125.8V-104.6z"/></g></g>
</svg>