<?xml version="1.0" encoding="utf-8"?>
<!-- Svg Vector Icons : http://www.onlinewebfonts.com/icon -->
<!DOCTYPE svg PUBLIC "-//W3C//DTD SVG 1.1//EN" "http://www.w3.org/Graphics/SVG/1.1/DTD/svg11.dtd">
<svg version="1.1" xmlns="http://www.w3.org/2000/svg" xmlns:xlink="http://www.w3.org/1999/xlink" x="0px" y="0px" viewBox="0 0 1000 1000" enable-background="new 0 0 1000 1000" xml:space="preserve">
<metadata> Svg Vector Icons : http://www.onlinewebfonts.com/icon </metadata>
<g><g transform="translate(0.000000,511.000000) scale(0.100000,-0.100000)"><path style="fill:#777" d="M1710.6,3433.5c-123.6-49-232.2-147-296.1-266.3l-46.9-85.2l-6.4-2115.5l-4.3-2115.5l-628.5-767L100-2685.1v-123.6c0-68.2,10.7-151.3,23.4-185.4c32-85.2,121.4-174.7,221.6-221.6c83.1-38.4,251.4-40.5,4655-40.5s4571.9,2.1,4655,40.5c100.1,46.8,189.6,136.3,221.6,221.6c12.8,34.1,23.4,117.2,23.4,185.4v127.8L9271.5-1916L8643-1151.2l-4.3,2117.7c-6.4,2015.4-8.5,2119.8-46.9,2190.1c-63.9,123.6-185.3,232.2-304.6,277c-112.9,42.6-168.3,42.6-3293.6,42.6C1910.9,3473.9,1812.9,3471.8,1710.6,3433.5z M8178.6,3013.8c36.2-32,38.3-117.2,38.3-1849.2V-650.6l-44.7-40.5c-44.8-38.4-130-40.5-3116.8-46.9c-1687.3-2.1-3099.8,0-3138.1,6.4C1772.4-706,1783-842.3,1783,1158.2c0,1657.5,2.1,1817.3,36.2,1853.5c32,36.2,159.8,38.3,3176.5,38.3C7891,3050,8142.4,3047.9,8178.6,3013.8z M5830.9-2190.9c70.3-104.4,127.8-196,127.8-202.4s-430.4-10.6-958.7-10.6c-526.2,0-958.7,4.3-958.7,10.6s57.5,98,127.8,202.4l130,191.7H5000h700.9L5830.9-2190.9z"/><path style="fill:#777" d="M4629.3,2417.3c-6.4-21.3-51.1-215.2-98-432.5c-46.9-217.3-91.6-409.1-98-428.2c-10.6-40.5-272.7-157.6-313.2-140.6c-14.9,6.4-189.6,112.9-387.7,238.6c-198.1,125.7-375,234.4-392,238.6c-49,12.8-524.1-468.7-507.1-513.4c6.4-17.1,115-193.9,240.7-389.9c123.6-196,230.1-368.6,236.5-383.5c17-40.5-100.1-302.5-140.6-313.2c-19.2-6.4-210.9-51.1-428.2-98c-217.3-46.9-411.2-91.6-430.4-98c-32-10.6-38.3-38.3-38.3-191.7v-179h905.4h903.3l12.8,80.9c53.3,340.9,221.6,588,494.3,726.5c351.5,176.8,760.6,115,1041.8-157.7c151.3-149.1,236.5-323.8,274.8-568.8l12.8-80.9h903.3H7727v181.1v179l-78.8,21.3c-44.7,10.7-242.9,55.4-443.1,100.1c-198.1,42.6-374.9,85.2-389.9,93.7c-23.4,10.7-78.8,123.6-138.5,277c-2.1,8.5,108.6,189.6,247.1,409C7060.1,1205,7173,1390.4,7173,1401c0,27.7-475.1,498.5-502.8,498.5c-12.8,0-189.6-106.5-394.1-236.5c-204.5-130-383.5-242.9-398.4-247.1c-40.5-17-300.4,100.1-311.1,140.6c-6.4,19.2-51.1,210.9-98,428.2c-46.9,217.3-91.6,411.2-98,432.5c-10.6,32-46.9,36.2-370.7,36.2S4640,2449.2,4629.3,2417.3z"/></g></g>
</svg>